<?xml version="1.0" encoding="UTF-8" standalone="no"?>
<!-- Created with Inkscape (http://www.inkscape.org/) -->

<svg
   width="64.802071mm"
   height="64.709511mm"
   viewBox="0 0 64.802071 64.709511"
   version="1.1"
   id="svg5"
   inkscape:version="1.4.2 (ebf0e940d0, 2025-05-08)"
   sodipodi:docname="ass1.svg"
   xmlns:inkscape="http://www.inkscape.org/namespaces/inkscape"
   xmlns:sodipodi="http://sodipodi.sourceforge.net/DTD/sodipodi-0.dtd"
   xmlns="http://www.w3.org/2000/svg"
   xmlns:svg="http://www.w3.org/2000/svg"
   xmlns:ns5="http://www.iki.fi/pav/software/textext/">
  <sodipodi:namedview
     id="namedview7"
     pagecolor="#ffffff"
     bordercolor="#ffffff"
     borderopacity="1"
     inkscape:showpageshadow="false"
     inkscape:pageopacity="0"
     inkscape:pagecheckerboard="false"
     inkscape:deskcolor="#a1a1a1"
     inkscape:document-units="mm"
     showgrid="true"
     inkscape:zoom="2.0054696"
     inkscape:cx="173.77476"
     inkscape:cy="148.84294"
     inkscape:window-width="1594"
     inkscape:window-height="848"
     inkscape:window-x="0"
     inkscape:window-y="49"
     inkscape:window-maximized="1"
     inkscape:current-layer="layer1"
     showborder="true"
     shape-rendering="auto"
     showguides="true">
    <inkscape:grid
       id="grid1"
       units="cm"
       originx="-47.415654"
       originy="-8.8104206"
       spacingx="9.9999999"
       spacingy="9.9999999"
       empcolor="#3f3fff"
       empopacity="0.25098039"
       color="#3f3fff"
       opacity="0.1254902"
       empspacing="5"
       enabled="true"
       visible="true" />
    <sodipodi:guide
       position="-0.081821656,58.81042"
       orientation="1,0"
       id="guide5"
       inkscape:locked="false" />
    <sodipodi:guide
       position="-17.46963,94.936731"
       orientation="0,-1"
       id="guide12"
       inkscape:locked="false" />
    <sodipodi:guide
       position="-67.415655,21.803584"
       orientation="0,-1"
       id="guide1"
       inkscape:locked="false" />
    <sodipodi:guide
       position="-78.718442,12.329354"
       orientation="0,-1"
       id="guide2"
       inkscape:locked="false" />
  </sodipodi:namedview>
  <defs
     id="defs2">
    <marker
       style="overflow:visible"
       id="Triangle-2"
       refX="0"
       refY="0"
       orient="auto-start-reverse"
       inkscape:stockid="Triangle arrow"
       markerWidth="0.75"
       markerHeight="0.75"
       viewBox="0 0 1 1"
       inkscape:isstock="true"
       inkscape:collect="always"
       preserveAspectRatio="xMidYMid">
      <path
         transform="scale(0.5)"
         style="fill:context-stroke;fill-rule:evenodd;stroke:context-stroke;stroke-width:1pt"
         d="M 5.77,0 -2.88,5 V -5 Z"
         id="path135-8" />
    </marker>
  </defs>
  <g
     inkscape:label="Layer 1"
     inkscape:groupmode="layer"
     id="layer1"
     transform="translate(-47.415655,-8.8104043)">
    <path
       style="font-variation-settings:normal;fill:#95b9e4;fill-opacity:1;fill-rule:evenodd;stroke:#3465a4;stroke-width:0.5;stroke-linecap:butt;stroke-linejoin:round;stroke-miterlimit:4;stroke-dasharray:0.5, 0.75;stroke-dashoffset:0;stroke-opacity:1;paint-order:markers fill stroke;stop-color:#000000"
       d="m 78.351047,62.83332 h 1e-5 -30.659102 l -0.0263,2.033177 h 1.96773 v 8.403419 h 2.03762 l 0.0288,-8.403419 h 2.04503 l -0.01,-2.033177 h 1.92873 l 0.0288,2.033177 h 2.16462 l -0.0487,8.403419 h 1.886725 l 0.06759,-8.403419 h 1.967491 l -0.0099,-2.033177 h 1.686146 l 0.07752,7.17962 c 0,0 0.430867,3.218647 3.271756,3.256976 2.74056,0 3.28069,-3.410381 3.28069,-3.410381 l -7.3e-4,-7.026215 h 1.520057 c 3.4e-4,0.856308 0.32008,5.08013 2.01935,5.292239 -0.0305,3.515457 1.61592,5.161469 3.705717,5.14439 l 0.18424,-10.436629 z"
       id="path4-7-6-2"
       sodipodi:nodetypes="cccccccccccccccccccccccccccc" />
    <path
       style="font-variation-settings:normal;fill:#95b9e4;fill-opacity:1;fill-rule:evenodd;stroke:#3465a4;stroke-width:0.5;stroke-linecap:butt;stroke-linejoin:round;stroke-miterlimit:4;stroke-dasharray:0.5, 0.75;stroke-dashoffset:0;stroke-opacity:1;paint-order:markers fill stroke;stop-color:#000000"
       d="m 81.282328,62.83332 h -6e-6 30.659108 l 0.0263,2.033177 H 110 v 8.403419 h -2.03762 l -0.0288,-8.403419 h -2.04503 l 0.01,-2.033177 h -1.92873 l -0.0288,2.033177 h -2.16462 l 0.0487,8.403419 h -1.886725 l -0.06759,-8.403419 h -1.967491 l 0.0099,-2.033177 h -1.686146 l -0.07752,7.17962 c 0,0 -0.430867,3.218647 -3.271752,3.256976 -2.740562,0 -3.280695,-3.410381 -3.280695,-3.410381 l 7.27e-4,-7.026215 h -1.520053 c -3.42e-4,0.856308 -0.320085,5.08013 -2.019349,5.292239 0.03046,3.515457 -1.615921,5.161469 -3.705727,5.14439 L 82.168437,62.83332 Z"
       id="path4-7-6"
       sodipodi:nodetypes="cccccccccccccccccccccccccccc" />
    <path
       id="path4-7-67"
       style="font-variation-settings:normal;fill:#95b9e4;fill-opacity:1;fill-rule:evenodd;stroke:#3465a4;stroke-width:0.5;stroke-linecap:butt;stroke-linejoin:round;stroke-miterlimit:4;stroke-dasharray:0.5, 0.75;stroke-dashoffset:0;stroke-opacity:1;paint-order:markers fill stroke;stop-color:#000000"
       d="m 58.929452,41.666779 c -0.47502,13.94566 13.706039,16.915531 21.070549,10.416935 7.3645,6.498596 21.545559,3.528725 21.070539,-10.416935 H 80.000001 Z" />
    <path
       id="path4-7"
       style="font-variation-settings:normal;fill:#95b9e4;fill-opacity:1;fill-rule:evenodd;stroke:#3465a4;stroke-width:0.5;stroke-linecap:butt;stroke-linejoin:round;stroke-miterlimit:4;stroke-dasharray:0.5, 0.75;stroke-dashoffset:0;stroke-opacity:1;paint-order:markers fill stroke;stop-color:#000000"
       d="m 50.606446,20.500112 c 5.859353,0.06546 7.035382,11.951222 10.048999,13.983126 3.030247,2.043118 4.582707,0.599919 6.844544,0 2.26184,-0.599919 4.084177,-2.991669 6.250264,-3.56619 2.16609,-0.574521 6.249748,0 6.249748,0 0,0 4.08366,-0.574521 6.24975,0 2.16609,0.574521 3.98842,2.966271 6.250257,3.56619 2.26184,0.599919 3.814297,2.043118 6.844547,0 3.013605,-2.031904 4.189635,-13.917668 10.048985,-13.983126 H 105.00001 80.000001 54.999977 Z" />
    <path
       style="font-variation-settings:normal;opacity:1;vector-effect:none;fill:#ef2929;fill-opacity:1;fill-rule:evenodd;stroke:#ef2929;stroke-width:1;stroke-linecap:butt;stroke-linejoin:miter;stroke-miterlimit:4;stroke-dasharray:none;stroke-dashoffset:0;stroke-opacity:1;-inkscape-stroke:none;paint-order:markers fill stroke;stop-color:#000000;stop-opacity:1"
       d="M 65.000003,20.499984 H 94.999998"
       id="path7"
       sodipodi:nodetypes="cc" />
    <path
       style="font-variation-settings:normal;vector-effect:none;fill:#ef2929;fill-opacity:1;fill-rule:evenodd;stroke:#ef2929;stroke-width:1;stroke-linecap:butt;stroke-linejoin:miter;stroke-miterlimit:4;stroke-dasharray:none;stroke-dashoffset:0;stroke-opacity:1;-inkscape-stroke:none;paint-order:markers fill stroke;stop-color:#000000"
       d="M 65.000003,41.666652 H 94.999998"
       id="path7-3"
       sodipodi:nodetypes="cc" />
    <path
       style="font-variation-settings:normal;vector-effect:none;fill:#ef2929;fill-opacity:1;fill-rule:evenodd;stroke:#ef2929;stroke-width:1;stroke-linecap:butt;stroke-linejoin:miter;stroke-miterlimit:4;stroke-dasharray:none;stroke-dashoffset:0;stroke-opacity:1;-inkscape-stroke:none;paint-order:markers fill stroke;stop-color:#000000"
       d="M 65.000003,62.83332 H 94.999998"
       id="path7-3-9"
       sodipodi:nodetypes="cc" />
    <path
       style="font-variation-settings:normal;vector-effect:none;fill:none;fill-opacity:1;fill-rule:evenodd;stroke:#000000;stroke-width:1;stroke-linecap:round;stroke-linejoin:miter;stroke-miterlimit:4;stroke-dasharray:none;stroke-dashoffset:0;stroke-opacity:1;-inkscape-stroke:none;marker-end:url(#Triangle-2);paint-order:markers fill stroke;stop-color:#000000"
       d="m 80.000002,20.499984 v -5.76668"
       id="path1-9"
       sodipodi:nodetypes="cc" />
    <text
       xml:space="preserve"
       style="font-style:normal;font-variant:normal;font-weight:normal;font-stretch:normal;font-size:6.35px;line-height:1;font-family:NewComputerModern10;-inkscape-font-specification:NewComputerModern10;text-align:justify;text-decoration:none;text-decoration-line:none;text-decoration-color:#000000;fill:#000000;stroke:#000000;stroke-width:1;stroke-linecap:butt;stroke-linejoin:miter;stroke-dasharray:4, 2;stroke-opacity:1;-inkscape-stroke:none;paint-order:markers fill stroke;stop-color:#000000"
       x="78.349007"
       y="11.617101"
       id="text2-4-3-9"><tspan
         sodipodi:role="line"
         id="tspan2-4-3-6"
         style="font-style:italic;font-variant:normal;font-weight:normal;font-stretch:normal;font-size:6.35px;font-family:NewComputerModern10;-inkscape-font-specification:NewComputerModern10;fill:#000000;stroke:none;stroke-width:1"
         x="78.349007"
         y="11.617101">z</tspan></text>
    <circle
       style="font-variation-settings:normal;vector-effect:none;fill:#000000;fill-opacity:1;fill-rule:evenodd;stroke:none;stroke-width:1;stroke-linecap:butt;stroke-linejoin:miter;stroke-miterlimit:4;stroke-dasharray:none;stroke-dashoffset:0;stroke-opacity:1;-inkscape-stroke:none;paint-order:markers fill stroke;stop-color:#000000"
       id="path9-1"
       cx="87.149658"
       cy="31.20369"
       r="1.0795045" />
    <g
       id="g8461"
       transform="matrix(0.56457 0 0 0.56457 31.8592 -7.5933)"
       ns5:version="1.12.0"
       ns5:texconverter="typst"
       ns5:pdfconverter="inkscape"
       ns5:text="$-b(r')$\n\n\n\n\n"
       ns5:preamble="default_preamble_typst.typ"
       ns5:scale="1.6003539"
       ns5:alignment="middle center"
       ns5:inkscapeversion="1.4.2"
       ns5:jacobian_sqrt="0.56457">
      <g
         id="g4014">
        <g
           class="typst-group"
           id="g4000">
          <g
             id="g1551">
            <g
               class="typst-text"
               transform="matrix(1 0 0 -1 70.8661 78.3791)"
               id="g4022">
              <g
                 id="g2711">
                <path
                   d="M 0 0m 7.678 2.97 h -6.798 c -0.176 0 -0.264 -0.07700014 -0.264 -0.22000003 c 0 -0.14300013 0.088 -0.22000003 0.264 -0.22000003 h 6.798 c 0.17600012 0 0.26399994 0.0769999 0.26399994 0.22000003 c 0 0.13199997 -0.13199997 0.22000003 -0.26399994 0.22000003 Z "
                   id="path7450" />
              </g>
            </g>
            <g
               class="typst-text"
               transform="matrix(1 0 0 -1 79.4241 78.3791)"
               id="g8251">
              <g
                 id="g1297">
                <path
                   d="M 0 0m 3.091 4.895 c -0.39600015 0 -0.79200006 -0.1869998 -1.177 -0.5609999 l 0.75900006 3.1349998 c -0.022000074 0.09899998 -0.055000067 0.16499996 -0.18700004 0.16499996 c -0.36300015 0 -1.1660001 -0.09899998 -1.309 -0.10999966 c -0.16500008 -0.022000313 -0.25300002 -0.09899998 -0.25300002 -0.26400042 c 0 -0.10999966 0.09899998 -0.16499996 0.30799997 -0.16499996 c 0.20899999 0 0.495 0.011000156 0.495 -0.14299965 c 0 -0.04400015 -0.055000067 -0.26400042 -0.15400004 -0.671 l -0.87999994 -3.542 c -0.12099999 -0.46200013 -0.176 -0.8360001 -0.176 -1.1110001 c 0 -0.94600004 0.506 -1.7490001 1.408 -1.7490001 c 0.7149999 0 1.342 0.363 1.892 1.1 c 0.4949999 0.68200004 0.74800014 1.397 0.74800014 2.1339998 c 0 0.95700026 -0.5609999 1.7820001 -1.474 1.7820001 Z m -0.022000074 -0.32999992 c 0.4289999 0 0.638 -0.32999992 0.638 -0.9790001 c 0 -0.29699993 -0.065999985 -0.6930001 -0.19799995 -1.188 c -0.2420001 -0.93500006 -0.5610001 -1.573 -0.9460001 -1.914 c -0.22000003 -0.187 -0.4289999 -0.275 -0.638 -0.275 c -0.45099998 0 -0.671 0.352 -0.671 1.056 c 0 0.24199998 0.055000067 0.605 0.16500008 1.0890001 l 0.24199998 0.9899998 c 0.032999992 0.1650002 0.08799994 0.286 0.15399992 0.37400007 c 0.42900002 0.5609999 0.847 0.8470001 1.2540001 0.8470001 Z "
                   id="path9733" />
              </g>
            </g>
            <g
               class="typst-text"
               transform="matrix(1 0 0 -1 84.2971 78.3791)"
               id="g3905">
              <g
                 id="g7851">
                <path
                   d="M 0 0m 3.498 -2.728 c 0.09899998 0 0.15400004 0.05499983 0.15400004 0.15400004 c 0 0.032999992 -0.022000074 0.0769999 -0.055000067 0.12099981 c -0.5719998 0.44000006 -1.0339999 1.1660001 -1.375 2.167 c -0.29699993 0.869 -0.45099986 1.727 -0.45099986 2.5740001 v 0.9239998 c 0 0.8470001 0.15399992 1.7049999 0.45099986 2.574 c 0.34100008 1.0010004 0.8030002 1.7270002 1.375 2.1670003 c 0.032999992 0.032999992 0.055000067 0.076999664 0.055000067 0.12100029 c 0 0.09899998 -0.055000067 0.15399933 -0.15400004 0.15399933 c -0.010999918 0 -0.04399991 -0.01099968 -0.0769999 -0.032999992 c -0.6600001 -0.50599957 -1.21 -1.2539997 -1.661 -2.2549996 c -0.42900002 -0.95700026 -0.64900005 -1.8590002 -0.64900005 -2.7280002 v -0.9239998 c 0 -0.8690001 0.22000003 -1.7710001 0.64900005 -2.7280002 c 0.45099998 -1.0009999 1.0009999 -1.7489998 1.661 -2.2549999 c 0.032999992 -0.022000074 0.065999985 -0.032999992 0.0769999 -0.032999992 Z "
                   id="path524" />
              </g>
            </g>
            <g
               class="typst-text"
               transform="matrix(1 0 0 -1 88.5761 78.3791)"
               id="g7493">
              <g
                 id="g2294">
                <path
                   d="M 0 0m 4.796 4.114 c 0 0.46200037 -0.4510002 0.74800014 -0.93499994 0.74800014 c -0.53900003 0 -0.99 -0.25299978 -1.3640001 -0.77 c -0.109999895 0.4289999 -0.48399997 0.77 -1.0009999 0.77 c -0.4510001 0 -0.7810001 -0.35200024 -1.0120001 -1.0669999 c -0.109999985 -0.36300015 -0.16499999 -0.572 -0.16499999 -0.638 c 0 -0.09899998 0.055000007 -0.15400004 0.176 -0.15400004 c 0.055000007 0 0.088 0.010999918 0.12099999 0.032999992 c 0.055000007 0.09899998 0.088 0.17599988 0.09899998 0.25300002 c 0.19800001 0.83599997 0.45100003 1.2539997 0.74799997 1.2539997 c 0.18700004 0 0.286 -0.1539998 0.286 -0.4619999 c 0 -0.14299989 -0.054999948 -0.43999982 -0.16499996 -0.8909998 l -0.627 -2.497 c -0.032999992 -0.143 -0.09900004 -0.42900002 -0.09900004 -0.48400003 c 0 -0.22 0.12099999 -0.32999998 0.35200006 -0.32999998 c 0.21999991 0 0.36299992 0.11 0.43999994 0.32999998 l 0.20899999 0.79200006 c 0.12100005 0.47299993 0.19799995 0.7809999 0.23099995 0.9239999 l 0.34100008 1.408 c 0.022000074 0.08800006 0.109999895 0.23099995 0.25300002 0.44000006 c 0.29699993 0.41799998 0.638 0.76999974 1.177 0.76999974 c 0.13199997 0 0.2420001 -0.021999836 0.34100008 -0.076999664 c -0.33000016 -0.09899998 -0.49500012 -0.3080001 -0.49500012 -0.605 c 0 -0.286 0.15400004 -0.42900014 0.45099998 -0.42900014 c 0.36299992 0 0.638 0.319 0.638 0.6819999 Z "
                   id="path4855" />
              </g>
            </g>
            <g
               class="typst-text"
               transform="matrix(1 0 0 -1 93.6801 74.3861)"
               id="g1090">
              <g
                 id="g7254">
                <path
                   d="M 0 0m 2.1868 4.2273 c -0.1925 0 -0.32340002 -0.07700014 -0.39269996 -0.23870015 l -1.2936001 -3.2494001 h 0.34649998 l 1.7094 2.8259 c 0.038499832 0.06929994 0.06159997 0.14630008 0.06159997 0.23099995 c 0 0.23100019 -0.20020008 0.43120027 -0.43120003 0.43120027 Z "
                   id="path5837" />
              </g>
            </g>
            <g
               class="typst-text"
               transform="matrix(1 0 0 -1 97.43 78.3791)"
               id="g4647">
              <g
                 id="g5499">
                <path
                   d="M 0 0m 0.858 -2.695 c 0.66 0.50600004 1.21 1.254 1.661 2.2549999 c 0.4289999 0.957 0.6489999 1.859 0.6489999 2.7280002 v 0.9239998 c 0 0.86899996 -0.22000003 1.7709999 -0.6489999 2.7280002 c -0.45099998 1.0009999 -1.001 1.7490001 -1.661 2.2549996 c -0.032999992 0.022000313 -0.065999985 0.032999992 -0.07699996 0.032999992 c -0.09900004 0 -0.15400004 -0.05499935 -0.15400004 -0.15399933 c 0 -0.044000626 0.022000015 -0.0880003 0.055000007 -0.12100029 c 0.57199997 -0.44000006 1.0339999 -1.1659999 1.375 -2.1670003 c 0.29700017 -0.86899996 0.45099998 -1.7269998 0.45099998 -2.574 v -0.9239998 c 0 -0.8470001 -0.1539998 -1.7050002 -0.45099998 -2.5740001 c -0.34099996 -1.0009999 -0.803 -1.727 -1.375 -2.167 c -0.032999992 -0.04399991 -0.055000007 -0.08799982 -0.055000007 -0.12099981 c 0 -0.099000216 0.055000007 -0.15400004 0.15400004 -0.15400004 c 0.010999978 0 0.04399997 0.010999918 0.07699996 0.032999992 Z "
                   id="path5453" />
              </g>
            </g>
          </g>
        </g>
      </g>
      <defs
         id="defs6261">
        <symbol
           id="symbol2393"
           overflow="visible">
          <path
             d="M 0 0m 7.678 2.97 h -6.798 c -0.176 0 -0.264 -0.07700014 -0.264 -0.22000003 c 0 -0.14300013 0.088 -0.22000003 0.264 -0.22000003 h 6.798 c 0.17600012 0 0.26399994 0.0769999 0.26399994 0.22000003 c 0 0.13199997 -0.13199997 0.22000003 -0.26399994 0.22000003 Z "
             id="path4651" />
        </symbol>
        <symbol
           id="symbol2365"
           overflow="visible">
          <path
             d="M 0 0m 3.091 4.895 c -0.39600015 0 -0.79200006 -0.1869998 -1.177 -0.5609999 l 0.75900006 3.1349998 c -0.022000074 0.09899998 -0.055000067 0.16499996 -0.18700004 0.16499996 c -0.36300015 0 -1.1660001 -0.09899998 -1.309 -0.10999966 c -0.16500008 -0.022000313 -0.25300002 -0.09899998 -0.25300002 -0.26400042 c 0 -0.10999966 0.09899998 -0.16499996 0.30799997 -0.16499996 c 0.20899999 0 0.495 0.011000156 0.495 -0.14299965 c 0 -0.04400015 -0.055000067 -0.26400042 -0.15400004 -0.671 l -0.87999994 -3.542 c -0.12099999 -0.46200013 -0.176 -0.8360001 -0.176 -1.1110001 c 0 -0.94600004 0.506 -1.7490001 1.408 -1.7490001 c 0.7149999 0 1.342 0.363 1.892 1.1 c 0.4949999 0.68200004 0.74800014 1.397 0.74800014 2.1339998 c 0 0.95700026 -0.5609999 1.7820001 -1.474 1.7820001 Z m -0.022000074 -0.32999992 c 0.4289999 0 0.638 -0.32999992 0.638 -0.9790001 c 0 -0.29699993 -0.065999985 -0.6930001 -0.19799995 -1.188 c -0.2420001 -0.93500006 -0.5610001 -1.573 -0.9460001 -1.914 c -0.22000003 -0.187 -0.4289999 -0.275 -0.638 -0.275 c -0.45099998 0 -0.671 0.352 -0.671 1.056 c 0 0.24199998 0.055000067 0.605 0.16500008 1.0890001 l 0.24199998 0.9899998 c 0.032999992 0.1650002 0.08799994 0.286 0.15399992 0.37400007 c 0.42900002 0.5609999 0.847 0.8470001 1.2540001 0.8470001 Z "
             id="path4810" />
        </symbol>
        <symbol
           id="symbol8519"
           overflow="visible">
          <path
             d="M 0 0m 3.498 -2.728 c 0.09899998 0 0.15400004 0.05499983 0.15400004 0.15400004 c 0 0.032999992 -0.022000074 0.0769999 -0.055000067 0.12099981 c -0.5719998 0.44000006 -1.0339999 1.1660001 -1.375 2.167 c -0.29699993 0.869 -0.45099986 1.727 -0.45099986 2.5740001 v 0.9239998 c 0 0.8470001 0.15399992 1.7049999 0.45099986 2.574 c 0.34100008 1.0010004 0.8030002 1.7270002 1.375 2.1670003 c 0.032999992 0.032999992 0.055000067 0.076999664 0.055000067 0.12100029 c 0 0.09899998 -0.055000067 0.15399933 -0.15400004 0.15399933 c -0.010999918 0 -0.04399991 -0.01099968 -0.0769999 -0.032999992 c -0.6600001 -0.50599957 -1.21 -1.2539997 -1.661 -2.2549996 c -0.42900002 -0.95700026 -0.64900005 -1.8590002 -0.64900005 -2.7280002 v -0.9239998 c 0 -0.8690001 0.22000003 -1.7710001 0.64900005 -2.7280002 c 0.45099998 -1.0009999 1.0009999 -1.7489998 1.661 -2.2549999 c 0.032999992 -0.022000074 0.065999985 -0.032999992 0.0769999 -0.032999992 Z "
             id="path6707" />
        </symbol>
        <symbol
           id="symbol3842"
           overflow="visible">
          <path
             d="M 0 0m 4.796 4.114 c 0 0.46200037 -0.4510002 0.74800014 -0.93499994 0.74800014 c -0.53900003 0 -0.99 -0.25299978 -1.3640001 -0.77 c -0.109999895 0.4289999 -0.48399997 0.77 -1.0009999 0.77 c -0.4510001 0 -0.7810001 -0.35200024 -1.0120001 -1.0669999 c -0.109999985 -0.36300015 -0.16499999 -0.572 -0.16499999 -0.638 c 0 -0.09899998 0.055000007 -0.15400004 0.176 -0.15400004 c 0.055000007 0 0.088 0.010999918 0.12099999 0.032999992 c 0.055000007 0.09899998 0.088 0.17599988 0.09899998 0.25300002 c 0.19800001 0.83599997 0.45100003 1.2539997 0.74799997 1.2539997 c 0.18700004 0 0.286 -0.1539998 0.286 -0.4619999 c 0 -0.14299989 -0.054999948 -0.43999982 -0.16499996 -0.8909998 l -0.627 -2.497 c -0.032999992 -0.143 -0.09900004 -0.42900002 -0.09900004 -0.48400003 c 0 -0.22 0.12099999 -0.32999998 0.35200006 -0.32999998 c 0.21999991 0 0.36299992 0.11 0.43999994 0.32999998 l 0.20899999 0.79200006 c 0.12100005 0.47299993 0.19799995 0.7809999 0.23099995 0.9239999 l 0.34100008 1.408 c 0.022000074 0.08800006 0.109999895 0.23099995 0.25300002 0.44000006 c 0.29699993 0.41799998 0.638 0.76999974 1.177 0.76999974 c 0.13199997 0 0.2420001 -0.021999836 0.34100008 -0.076999664 c -0.33000016 -0.09899998 -0.49500012 -0.3080001 -0.49500012 -0.605 c 0 -0.286 0.15400004 -0.42900014 0.45099998 -0.42900014 c 0.36299992 0 0.638 0.319 0.638 0.6819999 Z "
             id="path5381" />
        </symbol>
        <symbol
           id="symbol9200"
           overflow="visible">
          <path
             d="M 0 0m 2.1868 4.2273 c -0.1925 0 -0.32340002 -0.07700014 -0.39269996 -0.23870015 l -1.2936001 -3.2494001 h 0.34649998 l 1.7094 2.8259 c 0.038499832 0.06929994 0.06159997 0.14630008 0.06159997 0.23099995 c 0 0.23100019 -0.20020008 0.43120027 -0.43120003 0.43120027 Z "
             id="path5712" />
        </symbol>
        <symbol
           id="symbol8923"
           overflow="visible">
          <path
             d="M 0 0m 0.858 -2.695 c 0.66 0.50600004 1.21 1.254 1.661 2.2549999 c 0.4289999 0.957 0.6489999 1.859 0.6489999 2.7280002 v 0.9239998 c 0 0.86899996 -0.22000003 1.7709999 -0.6489999 2.7280002 c -0.45099998 1.0009999 -1.001 1.7490001 -1.661 2.2549996 c -0.032999992 0.022000313 -0.065999985 0.032999992 -0.07699996 0.032999992 c -0.09900004 0 -0.15400004 -0.05499935 -0.15400004 -0.15399933 c 0 -0.044000626 0.022000015 -0.0880003 0.055000007 -0.12100029 c 0.57199997 -0.44000006 1.0339999 -1.1659999 1.375 -2.1670003 c 0.29700017 -0.86899996 0.45099998 -1.7269998 0.45099998 -2.574 v -0.9239998 c 0 -0.8470001 -0.1539998 -1.7050002 -0.45099998 -2.5740001 c -0.34099996 -1.0009999 -0.803 -1.727 -1.375 -2.167 c -0.032999992 -0.04399991 -0.055000007 -0.08799982 -0.055000007 -0.12099981 c 0 -0.099000216 0.055000007 -0.15400004 0.15400004 -0.15400004 c 0.010999978 0 0.04399997 0.010999918 0.07699996 0.032999992 Z "
             id="path9066" />
        </symbol>
      </defs>
    </g>
  </g>
</svg>
